<svg height="424" viewBox="0 0 1440 424" width="1440" xmlns="http://www.w3.org/2000/svg" xmlns:xlink="http://www.w3.org/1999/xlink"><linearGradient id="a"><stop offset="0" stop-color="#e10067"/><stop offset="1" stop-color="#fa6400"/></linearGradient><linearGradient id="b" x1="62.169%" x2="42.43%" xlink:href="#a" y1="114.328%" y2="0%"/><linearGradient id="c"><stop offset="0" stop-color="#289dcc"/><stop offset="1" stop-color="#815eff"/></linearGradient><linearGradient id="d" x1="58.291%" x2="37.182%" xlink:href="#c" y1="100%" y2="4.498%"/><linearGradient id="e" x1="62.5%" x2="42.224%" xlink:href="#a" y1="114.328%" y2="0%"/><linearGradient id="f"><stop offset="0" stop-color="#44d7b6"/><stop offset="1" stop-color="#0091ff"/></linearGradient><linearGradient id="g" x1="57.71%" x2="41.704%" xlink:href="#f" y1="90.454%" y2="0%"/><linearGradient id="h" x1="80.842%" x2="16.816%" xlink:href="#f" y1="90.454%" y2="0%"/><linearGradient id="i" x1="16.816%" x2="80.842%" y1="0%" y2="90.454%"><stop offset="0" stop-color="#4e2bcc"/><stop offset="1" stop-color="#0091ff"/></linearGradient><linearGradient id="j"><stop offset="0" stop-color="#fa6400"/><stop offset="1" stop-color="#f8c332"/></linearGradient><linearGradient id="k" x1="50%" x2="71.118%" xlink:href="#j" y1="0%" y2="100%"/><linearGradient id="l" x1="0%" x2="50%" y1="0%" y2="100%"><stop offset="0" stop-color="#e64c4c"/><stop offset="1" stop-color="#fb8332"/></linearGradient><linearGradient id="m" x1="49.438%" x2="50.522%" y1="0%" y2="90.454%"><stop offset="0" stop-color="#f7b500"/><stop offset="1" stop-color="#fa6400"/></linearGradient><linearGradient id="n" x1="51.137%" x2="48.242%" xlink:href="#c" y1="100%" y2="4.498%"/><linearGradient id="o" x1="0%" x2="50%" y1="48.796%" y2="51.204%"><stop offset="0" stop-color="#8adc32"/><stop offset="1" stop-color="#69dfc4"/></linearGradient><linearGradient id="p" x1="50%" x2="51.428%" xlink:href="#j" y1="0%" y2="100%"/><linearGradient id="q" x1="0%" x2="48.733%" y1="0%" y2="97.467%"><stop offset="0" stop-color="#c44ce6"/><stop offset="1" stop-color="#815eff"/></linearGradient><linearGradient id="r" x1="16.816%" x2="80.842%" y1="36.15%" y2="61.206%"><stop offset="0" stop-color="#e10067"/><stop offset="1" stop-color="#b620e0"/></linearGradient><g fill="none" fill-rule="evenodd" transform="translate(-61 -22)"><path d="m50.3881373 86.9949761c-20.1523258-.3311547-36.3881373-16.9914048-36.3881373-37.4949761 0-20.7106781 16.5654643-37.5 37-37.5v75z" fill="url(#b)" transform="matrix(.91354546 -.40673664 .40673664 .91354546 179.676309 223.498441)"/><path d="m91.3385269 83.9947081c-21.7862982-.3488162-39.3385269-17.897613-39.3385269-39.4947081 0-21.8152476 17.90861-39.5 40-39.5v79z" fill="url(#d)" transform="matrix(-.91354546 .40673664 .40673664 .91354546 316.675343 180.562221)"/><path d="m1243 196c0-27.614237 22.38576-50 50-50v16c-18.77768 0-34 15.222319-34 34s15.22232 34 34 34v16c-27.61424 0-50-22.385763-50-50z" fill="url(#e)" transform="matrix(.58778525 .80901699 -.80901699 .58778525 681.255631 -945.039458)"/><path d="m93 35v16c-18.7776815 0-34 15.2223185-34 34 0 18.777681 15.2223185 34 34 34v16c-27.6142375 0-50-22.385763-50-50 0-27.3380951 21.9402858-49.5517619 49.1731586-49.9933014zm50 50-.001.118.000863-.2361716c.000091.0393798.000137.0787704.000137.1181716z" fill="url(#g)" transform="matrix(-.54463904 .83867057 -.83867057 -.54463904 176.322453 74.264719)"/><path d="m1424 15 94 94h-94z" fill="url(#h)" transform="matrix(.22495105 -.97437006 .97437006 .22495105 1079.686055 1481.3514)"/><path d="m567 49 44 44h-44z" fill="url(#i)" transform="matrix(-.8660254 -.5 .5 -.8660254 1063.588963 426.987804)"/><path d="m18 226 94 94h-94z" fill="url(#k)" transform="matrix(.8480481 -.52991926 .52991926 .8480481 -134.791085 75.927622)"/><path d="m235 10 94 94h-94z" fill="url(#l)" transform="matrix(.2419219 -.97029573 .97029573 .2419219 158.471169 316.833847)"/><path d="m1318 266c4.41828 0 8 3.581722 8 8v107c0 4.418278-3.58172 8-8 8s-8-3.581722-8-8v-107c0-4.418278 3.58172-8 8-8z" fill="url(#m)" transform="matrix(.89100652 .4539905 -.4539905 .89100652 292.33529 -562.664115)"/><path d="m279.5 367c4.142136 0 7.5 3.357864 7.5 7.5v65c0 4.142136-3.357864 7.5-7.5 7.5s-7.5-3.357864-7.5-7.5v-65c0-4.142136 3.357864-7.5 7.5-7.5z" fill="url(#n)" transform="matrix(.77714596 -.62932039 .62932039 .77714596 -193.845695 266.596643)"/><path d="m140.5 413h49c2.485281 0 4.5 2.014719 4.5 4.5s-2.014719 4.5-4.5 4.5h-49c-2.485281 0-4.5-2.014719-4.5-4.5s2.014719-4.5 4.5-4.5z" fill="url(#o)" transform="matrix(-.25881905 -.96592583 .96592583 -.25881905 -195.56889 684.934713)"/><path d="m905.5 72c3.589851 0 6.5 2.9101491 6.5 6.5v37c0 3.589851-2.910149 6.5-6.5 6.5s-6.5-2.910149-6.5-6.5v-37c0-3.5898509 2.910149-6.5 6.5-6.5z" fill="url(#p)" transform="matrix(-.69465837 -.7193398 .7193398 -.69465837 1464.737194 815.744051)"/><path d="m1490.5 281c19.05382 0 34.5 15.446176 34.5 34.5s-15.44618 34.5-34.5 34.5-34.5-15.446176-34.5-34.5 15.44618-34.5 34.5-34.5zm0 17c-9.66498 0-17.5 7.835017-17.5 17.5s7.83502 17.5 17.5 17.5 17.5-7.835017 17.5-17.5-7.83502-17.5-17.5-17.5z" fill="url(#i)"/><path d="m1184.5 44c17.39697 0 31.5 14.1030304 31.5 31.5s-14.10303 31.5-31.5 31.5-31.5-14.1030304-31.5-31.5 14.10303-31.5 31.5-31.5zm0 9c-12.42641 0-22.5 10.0735931-22.5 22.5s10.07359 22.5 22.5 22.5 22.5-10.0735931 22.5-22.5-10.07359-22.5-22.5-22.5z" fill="url(#q)"/><path d="m308 89 19.253 20 18.747-20" stroke="url(#r)" stroke-linecap="square" stroke-width="12" transform="matrix(-.66913061 -.74314483 .74314483 -.66913061 472.234371 408.252288)"/></g></svg>