<svg id="Capa_1" enable-background="new 0 0 511.946 511.946" height="512" viewBox="0 0 511.946 511.946" width="512" xmlns="http://www.w3.org/2000/svg"><g><path d="m255.973 0-20 244.278 20 267.668 2.111-.3c62.122-8.833 118.983-39.795 160.111-87.183 41.128-47.389 63.777-108.043 63.777-170.79v-189.407z" fill="#fb3"/><path d="m29.973 64.266v189.407c0 62.747 22.649 123.401 63.777 170.79 41.128 47.388 97.989 78.351 160.111 87.183l2.111.3v-511.946z" fill="#ffea80"/><path d="m255.973 62.378-20 181.899 20 206.982 2.794-.53c44.142-8.369 84.668-31.665 114.115-65.595 31.656-36.477 49.091-83.165 49.091-131.462v-144.09z" fill="#ff884d"/><path d="m89.973 109.583v144.09c0 48.297 17.435 94.985 49.092 131.462 29.446 33.93 69.973 57.226 114.114 65.595l2.794.53v-388.882z" fill="#fb3"/><path d="m255.973 93.568-20 150.71 20 176.423c36.454-7.553 69.831-27.091 94.252-55.229 26.922-31.021 41.748-70.726 41.748-111.799v-121.432z" fill="#ece6f2"/><path d="m119.973 132.241v121.432c0 41.073 14.826 80.778 41.749 111.799 24.42 28.138 57.797 47.675 94.251 55.229v-327.133z" fill="#fff5f5"/><path d="m359.352 240.961c-.332-.759-8.332-18.792-24.568-36.747-22.272-24.628-49.524-37.646-78.811-37.646l-10 14.999 10 15.001c8.953 0 17.114 1.785 24.491 4.71l-24.491 24.491-10 24.213 10 18.213 50.205-50.205c11.121 10.385 18.654 22.076 22.56 28.991-8.237 14.583-32.57 50.414-72.765 50.414l-10 15.358 10 14.642c29.286 0 56.538-13.018 78.811-37.646 16.236-17.955 24.236-35.987 24.568-36.747l2.639-6.021z" fill="#cc295f"/><path d="m231.482 292.687 24.491-24.491v-42.426l-50.206 50.206c-11.129-10.391-18.662-22.088-22.56-28.991 8.235-14.581 32.568-50.415 72.766-50.415v-30c-29.286 0-56.538 13.018-78.811 37.646-16.236 17.955-24.236 35.987-24.568 36.747l-2.639 6.021 2.639 6.021c.332.759 8.332 18.792 24.568 36.747 22.272 24.628 49.524 37.646 78.811 37.646v-30c-8.953-.002-17.114-1.787-24.491-4.711z" fill="#ff4d4d"/></g></svg>