<svg id="Capa_1" enable-background="new 0 0 512 512" height="512" viewBox="0 0 512 512" width="512" xmlns="http://www.w3.org/2000/svg"><path d="m100.579 444.64v-377.28c0-37.202 30.158-67.36 67.36-67.36h198.656c37.202 0 67.36 30.158 67.36 67.36v377.28c0 37.202-30.158 67.36-67.36 67.36h-198.656c-37.202 0-67.36-30.158-67.36-67.36z" fill="#4e5660"/><path d="m186.026 0h-18.087c-37.202 0-67.36 30.158-67.36 67.36v377.28c0 37.202 30.158 67.36 67.36 67.36h90.678c-72.013-98.925-80.15-345.835-72.591-512z" fill="#383c43"/><ellipse cx="267.267" cy="32.293" fill="#8eafe2" rx="7.461" ry="7.461" transform="matrix(.985 -.172 .172 .985 -1.579 46.309)"/><path d="m360.723 32.293h-32.63c-5.152 0-9.958 2.596-12.783 6.904l-5.091 7.764c-3.971 6.056-10.726 9.705-17.968 9.705h-49.969c-7.242 0-13.997-3.648-17.968-9.705l-5.091-7.764c-2.825-4.309-7.631-6.904-12.783-6.904h-32.63c-22.61 0-40.939 18.329-40.939 40.939v365.536c0 22.61 18.329 40.939 40.939 40.939h186.912c22.61 0 40.939-18.329 40.939-40.939v-365.536c.001-22.61-18.328-40.939-40.938-40.939z" fill="#f7ef87"/><path d="m184.798 32.293h-10.987c-22.61 0-40.939 18.329-40.939 40.939v365.536c0 22.61 18.329 40.939 40.939 40.939h65.831c-50.661-105.304-59.38-299.834-54.844-447.414z" fill="#efd176"/><path d="m337.23 328.921h-139.926c-9.705 0-17.572 7.867-17.572 17.572v12.4c0 9.705 7.867 17.572 17.572 17.572h139.926c9.705 0 17.573-7.867 17.573-17.572v-12.4c-.001-9.704-7.868-17.572-17.573-17.572z" fill="#fff"/><path d="m198.555 328.921h-1.251c-9.705 0-17.572 7.867-17.572 17.572v12.4c0 9.705 7.867 17.573 17.572 17.573h9.686c-3.186-15.314-5.988-31.214-8.435-47.545z" fill="#fcf2d0"/><path d="m243.869 407.813h-37.898c-6.012 0-10.886 4.874-10.886 10.886v7.681c0 6.012 4.874 10.886 10.886 10.886h37.898c6.012 0 10.886-4.874 10.886-10.886v-7.681c0-6.012-4.874-10.886-10.886-10.886z" fill="#e8899e"/><path d="m214.293 407.813h-8.322c-6.012 0-10.886 4.874-10.886 10.886v7.681c0 6.012 4.874 10.886 10.886 10.886h16.903c-3.075-9.424-5.93-19.263-8.581-29.453z" fill="#de5c6e"/><path d="m328.243 407.813h-37.898c-6.012 0-10.886 4.874-10.886 10.886v7.681c0 6.012 4.874 10.886 10.886 10.886h37.898c6.012 0 10.886-4.874 10.886-10.886v-7.681c0-6.012-4.873-10.886-10.886-10.886z" fill="#7cddc5"/><path d="m90.227 135.319h10.351v-60.574h-10.351c-6.728 0-12.183 5.454-12.183 12.183v36.209c.001 6.728 5.455 12.182 12.183 12.182z" fill="#8eafe2"/><path d="m90.227 222.756h10.351v-60.574h-10.351c-6.728 0-12.183 5.454-12.183 12.183v36.209c.001 6.728 5.455 12.182 12.183 12.182z" fill="#a3defe"/><circle cx="267.267" cy="192.469" fill="#fff" r="107.706"/><path d="m267.267 124.195c-32.428 0-58.716 26.288-58.716 58.716 0 16.395 6.726 31.214 17.562 41.866-16.109 10.531-27.944 27.055-32.322 46.41 19.245 17.971 45.068 28.988 73.476 28.988 28.409 0 54.231-11.016 73.476-28.988-4.378-19.355-16.213-35.879-32.322-46.41 10.835-10.652 17.562-25.471 17.562-41.866 0-32.428-26.288-58.716-58.716-58.716z" fill="#8eafe2"/><ellipse cx="229.398" cy="194.268" fill="#fff" rx="13.973" ry="11.127"/><ellipse cx="305.136" cy="194.268" fill="#fff" rx="13.973" ry="11.127"/><g fill="#4e5660"><path d="m237.542 190.668c-4.142 0-7.5-3.358-7.5-7.5v-4.935c0-4.142 3.358-7.5 7.5-7.5s7.5 3.358 7.5 7.5v4.935c0 4.142-3.358 7.5-7.5 7.5z"/><path d="m296.992 190.668c-4.142 0-7.5-3.358-7.5-7.5v-4.935c0-4.142 3.358-7.5 7.5-7.5s7.5 3.358 7.5 7.5v4.935c0 4.142-3.358 7.5-7.5 7.5z"/><path d="m267.267 194.457c-5.172 0-10.089-2.239-13.491-6.143-2.721-3.123-2.395-7.86.727-10.582 3.123-2.721 7.861-2.396 10.582.727.325.372 1.04.997 2.183.997s1.858-.626 2.183-.998c2.722-3.124 7.46-3.448 10.582-.726 3.123 2.722 3.448 7.459.726 10.582-3.404 3.904-8.32 6.143-13.492 6.143z"/><circle cx="267.107" cy="352.693" r="7.33"/><circle cx="239.642" cy="352.693" r="7.33"/><circle cx="212.177" cy="352.693" r="7.33"/></g><path d="m191.222 268.74c-4.596-47.554-6.794-96.873-7.335-144.448-15.202 18.569-24.326 42.307-24.326 68.177 0 29.8 12.103 56.771 31.661 76.271z" fill="#fcf2d0"/></svg>